<?xml version="1.0" encoding="UTF-8"?><svg id="Layer_1" xmlns="http://www.w3.org/2000/svg" viewBox="0 0 1290 1277"><defs><style>.cls-1{fill:#666766;}.cls-1,.cls-2{fill-rule:evenodd;}.cls-2{fill:#da2727;}</style></defs><path class="cls-2" d="M403,317.73c0,3.37,2.71,6.1,6.06,6.1h57.63v90.12c0,67.43,37.31,129.77,105.04,175.54,14.02,9.47,22.38,27.8,22.38,49s-8.36,39.53-22.38,49c-67.73,45.77-105.04,108.13-105.04,175.54v90.14h-57.63c-3.35,0-6.06,2.75-6.06,6.1s2.71,6.1,6.06,6.1h471.97c3.33,0,6.06-2.73,6.06-6.12,0-2.17-1.12-3.65-1.77-4.29-.68-.68-2.11-1.79-4.29-1.79h-57.65v-90.14c0-67.41-37.29-129.77-105.04-175.54-14-9.47-22.36-27.78-22.36-49s8.36-39.53,22.38-49c67.73-45.77,105.02-108.11,105.04-175.54v-90.12h57.63c3.35,0,6.06-2.73,6.06-6.1s-2.71-6.1-6.06-6.1H409.07c-3.35,0-6.06,2.73-6.06,6.1Zm75.84,6.1h332.41v90.12c0,85.34-62.44,140.26-99.65,165.41-17.39,11.73-27.76,33.84-27.76,59.13s10.37,47.4,27.76,59.15c37.21,25.15,99.65,80.09,99.65,165.39v90.14H478.84v-90.14c0-85.28,62.44-140.24,99.65-165.39,17.37-11.75,27.74-33.84,27.74-59.15s-10.37-47.4-27.74-59.13c-37.21-25.17-99.65-80.11-99.65-165.41v-90.12Z"/><path class="cls-1" d="M1181.49,704.48c-.28,3.03-3.03,5.58-6.02,5.58l-.26-.02c-2.01-.18-3.37-.86-4.49-2.21-1.06-1.28-1.54-2.83-1.4-4.49,1-10.87,1.66-21.76,1.95-32.33,.1-3.39,2.71-5.92,6.06-5.92h.6c3.03,.1,5.64,2.95,5.54,6.34-.32,10.87-1,21.98-1.99,33.05Zm-19.03-176.27c-.52,.12-1.04,.2-1.54,.2-2.77,0-5.21-1.91-5.88-4.65-2.63-10.35-5.6-20.78-8.85-31.01-1.04-3.25,.74-6.74,3.97-7.78,.6-.18,1.24-.3,1.85-.3,2.69,0,4.97,1.68,5.8,4.29,3.31,10.47,6.36,21.14,9.05,31.75,.4,1.64,.18,3.25-.66,4.69-.86,1.42-2.15,2.39-3.75,2.81Zm-15.7,323.81c-3.97,10.21-8.32,20.44-12.88,30.39-1,2.13-3.23,3.57-5.58,3.57-.86,0-1.68-.18-2.49-.54-3.07-1.46-4.43-5.13-3.01-8.22,4.47-9.71,8.72-19.7,12.6-29.71,.94-2.41,3.13-3.91,5.7-3.91,.76,0,1.48,.14,2.21,.44,3.13,1.24,4.69,4.81,3.45,7.98Zm-59.55-489.96c-2.05,0-3.97-1.02-5.13-2.73-5.92-8.87-12.2-17.71-18.71-26.24-1-1.32-1.4-2.87-1.18-4.53,.22-1.66,1.02-3.07,2.33-4.07,1.1-.86,2.31-1.26,3.67-1.26,1.99,0,3.69,.84,4.89,2.39,6.62,8.72,13.06,17.75,19.15,26.86,.92,1.4,1.24,2.99,.94,4.61-.32,1.64-1.22,2.99-2.59,3.91-1.04,.7-2.17,1.06-3.37,1.06Zm-57.26,672.01c-1.2,1.24-2.67,1.85-4.37,1.85s-3.11-.6-4.25-1.73c-2.43-2.37-2.47-6.26-.12-8.7,7.28-7.5,14.6-15.5,21.7-23.75,1.18-1.38,2.87-2.15,4.65-2.15,1.46,0,2.87,.54,3.99,1.52,2.53,2.21,2.81,6.08,.62,8.66-7.1,8.26-14.58,16.45-22.22,24.31Zm-67.89-803.68c-1.3,0-2.51-.42-3.59-1.22-8.46-6.32-17.33-12.5-26.34-18.43-1.42-.92-2.33-2.25-2.67-3.89-.34-1.62-.04-3.23,.86-4.63,1.16-1.77,3.03-2.79,5.15-2.79,1.16,0,2.29-17.61,3.29,1,9.25,6.06,18.33,12.4,26.96,18.85,1.36,1,2.17,2.41,2.43,4.05,.24,1.66-.16,3.21-1.14,4.55-1.22,1.66-2.91,2.51-4.95,2.51Zm-51.45,896.19c-9.23,5.26-19.03,10.45-29.06,15.4l-.42,.18-4.33,1.48s-4.29,2.67-4.45,2.77c-71.36,33.46-147.86,50.5-227.25,50.5-29.83,0-59.85-2.49-89.2-7.4l-1.99-.3c-109.73-18.69-209.96-70.94-289.57-151.09-7.56-7.6-15.18-15.77-22.67-24.29l-.72-.8c-.4-.42-.92-.96-1.34-1.38-6.82-7.86-13.42-15.87-19.6-23.87-.56-.8-1.02-1.42-1.5-2.03-68.3-88.81-106.85-195.46-111.4-308.4l-.22-2.89c-.26-6.64-.4-13.42-.4-20.12,0-3.99,.04-8.04,.14-12.03l.24-3.37c3.53-124.6,47.7-240.43,127.77-335.02l1.28-1.52c9.01-10.57,18.61-21.02,28.42-30.89,100.89-101.57,235.03-157.95,377.7-158.72l40.56-.24-.26-32.47,46.25,38.15-45.63,38.93-.26-32.31-40.32,.22c-38.75,.2-77.42,4.69-114.93,13.32-.76,.18-1.34,.34-1.83,.48-1.95,.46-6.78,1.62-6.78,1.62-169.17,42.16-306.46,165.63-367.25,330.29-.6,1.64-1.12,3.07-1.64,4.55-.98,2.71-2.07,5.78-3.11,8.83l-1.1,3.37c-17.87,53.93-26.92,110.22-26.92,167.28s9.01,113.08,26.76,166.82c.72,2.19,1.52,4.51,2.31,6.84l.84,2.39c74.37,211.59,273.83,353.75,496.36,353.75,19.64,0,39.43-1.12,58.85-3.27l1.2-.14c9.83-1.16,20.02-2.65,30.15-4.43l2.47-.36c44.65-7.96,88.21-21.82,129.45-41.18l4.65-1.64,3.85-2.41c.18-.1,.34-.2,.52-.28,9.45-4.63,19.01-9.69,28.4-15.04,.9-.52,1.93-.8,2.95-.8,2.21,0,4.27,1.18,5.34,3.11,1.08,1.93,.82,3.75,.56,4.69-.24,.92-.96,2.63-2.87,3.71Z"/></svg>