<?xml version="1.0" encoding="UTF-8"?><svg id="Layer_1" xmlns="http://www.w3.org/2000/svg" viewBox="0 0 1290 1277"><defs><style>.cls-1{fill:#666766;}.cls-1,.cls-2{fill-rule:evenodd;}.cls-2{fill:#da2727;}</style></defs><path class="cls-1" d="M576.32,1239.62c-293.25,0-531.83-238.8-531.83-532.33S283.07,174.97,576.32,174.96c49.9,0,99.32,6.93,146.86,20.6,3.5,1.01,5.52,4.67,4.52,8.15-.94,3.3-3.94,4.79-6.33,4.79-.61,0-1.23-.08-1.84-.26-46.35-13.32-94.54-20.08-143.22-20.08-285.98,0-518.63,232.87-518.63,519.12s232.66,519.13,518.63,519.13,518.6-232.88,518.6-519.13c0-48.61-6.72-96.76-19.97-143.1-1-3.51,1.03-7.17,4.53-8.17,.59-.17,1.21-.25,1.83-.25,2.39,0,5.39,1.49,6.33,4.79,13.59,47.52,20.47,96.9,20.47,146.74,0,293.53-238.56,532.33-531.79,532.33Zm0-175.24c-196.72,0-356.77-160.19-356.77-357.1s160.05-357.07,356.77-357.07c45.43,0,89.65,8.45,131.43,25.08,2.1,.83,3.13,2.37,3.62,3.52,.49,1.15,.91,2.95,.07,5.06-1.22,3.06-4.07,4.16-6.13,4.16-.82,0-1.63-.15-2.42-.47-40.24-16.02-82.81-24.15-126.57-24.15-189.45,0-343.58,154.27-343.58,343.87s154.13,343.88,343.58,343.88,343.55-154.26,343.55-343.88c0-43.63-8.06-86.17-23.97-126.43-1.34-3.38,.33-7.22,3.71-8.57,.78-.3,1.6-.46,2.41-.46,2.07,0,4.93,1.1,6.14,4.18,16.51,41.82,24.89,85.98,24.89,131.28,0,196.9-160.03,357.1-356.74,357.1Z"/><path class="cls-2" d="M1234.99,259.12l-170.27,170.43c-12.28,12.29-28.61,19.06-45.98,19.06h-174.75l-244.14,244.37c-1.68,1.69-3.64,1.94-4.66,1.94-1.24,0-3.07-.33-4.67-1.94-2.57-2.56-2.57-6.76,0-9.33l244.14-244.38v-174.92c0-17.39,6.76-33.73,19.04-46.01L1023.97,47.91c6.79-6.8,15.76-10.53,25.27-10.53,1.26,0,2.5,.06,3.74,.19,0,0,11.78,2.17,18.95,7.89,8.23,6.69,13.19,16.82,13.19,27.81v124.65h124.53c11,0,21.12,4.98,27.81,13.23,0,0,6.42,8.99,7.85,18.98,1.09,10.54-2.54,21.22-10.32,28.99Zm-163.06-187.57c-5.09-25.11-32.48-20.44-32.48-20.44l-176.42,176.56c-9.78,9.79-15.17,22.82-15.18,36.67v161.74l224.08-224.29V71.55Zm143.32,139.59h-134s-224.08,224.26-224.08,224.26h161.56c13.65,0,27.01-5.53,36.66-15.19l176.03-176.19c7.68-22.88-16.17-32.87-16.17-32.87Zm-615.59,320.31c-.21,0-.43-.02-.64-.05-4.88-.44-9.98-.67-15.15-.67-92.9,0-168.49,75.66-168.5,168.65,0,92.98,75.59,168.62,168.5,168.62s168.46-75.64,168.46-168.62c0-4.91-.22-9.85-.65-14.66-.2-2.27,.71-3.88,1.51-4.83,.8-.96,2.23-2.15,4.47-2.34,.12,0,.32-.02,.52-.02,3.42,0,6.33,2.63,6.63,6,.47,5.22,.7,10.54,.7,15.85,0,100.26-81.49,181.82-181.65,181.82s-181.68-81.56-181.68-181.82,81.5-181.85,181.68-181.85c5.61,0,11.11,.25,16.36,.73,3.62,.34,6.3,3.56,5.97,7.19-.31,3.37-3.18,6-6.54,6Z"/></svg>