<?xml version="1.0" encoding="UTF-8"?><svg id="Layer_1" xmlns="http://www.w3.org/2000/svg" viewBox="0 0 1290 1277"><defs><style>.cls-1{fill:#666766;}.cls-1,.cls-2{fill-rule:evenodd;}.cls-2{fill:#da2727;}</style></defs><path class="cls-2" d="M674.84,395.04c-3.38,0-6.11,2.8-6.11,6.26v321.15c0,1.5,.46,3,1.29,4.05l160.47,193.38c1.11,1.38,2.67,2.07,4.67,2.07s3.21-.75,3.88-1.33c1.27-1.06,2.07-2.61,2.21-4.28,.13-1.63-.37-3.11-1.46-4.4l-158.68-191.55V401.3c0-3.46-2.8-6.26-6.26-6.26Z"/><path class="cls-1" d="M685.35,138.65c-130.04,0-254.61,48.39-350.76,136.23-95.58,87.28-154.94,205.81-167.19,333.72l-2.79,29.16L55.63,477.53c-1.86-2.67-5.99-3.44-8.59-1.73-2.86,1.96-3.61,5.88-1.65,8.74l120.65,177.43c1.17,1.77,3.05,2.82,5.05,2.82,.31,0,.6-.04,.5-.06,.25,0,.27,0,1-.17,.25-.06,.5-.13,.96-.33l178.8-121.13c1.38-.96,2.32-2.36,2.63-3.98,.31-1.59-.04-3.19-1-4.61-1.88-2.77-5.72-3.55-8.57-1.63l-168.29,114.19,1.38-21.55c17.17-266.06,239.81-474.48,506.85-474.48,280.16,0,508.1,227.63,508.1,507.42s-227.94,507.64-508.1,507.64c-168.98,0-326.49-83.76-421.38-224-1.75-2.67-5.63-3.44-8.61-1.42-1.29,.86-2.17,2.19-2.48,3.75-.33,1.65,.04,3.3,1.02,4.75,96.9,143.51,258.18,229.17,431.44,229.17,286.92,0,520.35-233.2,520.35-519.87S972.27,138.65,685.35,138.65Z"/></svg>