<svg width="17" height="31" viewBox="0 0 17 31" fill="none" xmlns="http://www.w3.org/2000/svg">
<path fill-rule="evenodd" clip-rule="evenodd" d="M16.3416 0.00655218L12.3754 0C7.91995 0 5.04029 2.94846 5.04029 7.51202V10.977H1.05113C0.886046 10.977 0.727723 11.0426 0.610991 11.1593C0.494258 11.2761 0.428679 11.4344 0.428679 11.5995V16.6228C0.428679 16.7878 0.494258 16.9462 0.610991 17.0629C0.727723 17.1796 0.886046 17.2452 1.05113 17.2452H5.0392V29.9127C5.0392 30.078 5.10489 30.2366 5.22183 30.3536C5.33877 30.4705 5.49737 30.5362 5.66274 30.5362H10.8651C10.9471 30.5364 11.0283 30.5203 11.1041 30.4891C11.1799 30.4578 11.2487 30.4119 11.3068 30.354C11.3648 30.2961 11.4108 30.2273 11.4422 30.1515C11.4736 30.0758 11.4898 29.9946 11.4898 29.9127V17.2452H16.1527C16.3179 17.2452 16.4763 17.1797 16.5932 17.063C16.7101 16.9463 16.776 16.7879 16.7763 16.6228V11.5995C16.7763 11.5176 16.7601 11.4366 16.7288 11.361C16.6974 11.2854 16.6515 11.2167 16.5936 11.1589C16.5356 11.1011 16.4669 11.0553 16.3912 11.0241C16.3156 10.9929 16.2345 10.9769 16.1527 10.977H11.4898V8.03947C11.4898 6.62857 11.8272 5.91221 13.6738 5.91221H16.3449C16.5101 5.91221 16.6685 5.84666 16.7854 5.72996C16.9023 5.61326 16.9682 5.45494 16.9684 5.28976V0.629005C16.9683 0.546935 16.952 0.465701 16.9204 0.389961C16.8888 0.314221 16.8425 0.245465 16.7843 0.187637C16.726 0.129808 16.657 0.084044 16.581 0.0529694C16.505 0.0218948 16.4237 0.00612087 16.3416 0.00655218V0.00655218Z" fill="#989898"/>
</svg>
