<?xml version="1.0" encoding="utf-8"?>
<!-- Generator: Adobe Illustrator 19.0.0, SVG Export Plug-In . SVG Version: 6.00 Build 0)  -->
<svg version="1.1" id="Layer_1" xmlns="http://www.w3.org/2000/svg" xmlns:xlink="http://www.w3.org/1999/xlink" x="0px" y="0px"
	 viewBox="0 0 28 28" style="enable-background:new 0 0 28 28;" xml:space="preserve">
<style type="text/css">
	.st0{fill:#989898;}
</style>
<g id="XMLID_1_">
	<g>
		<g>
			<path class="st0" d="M19,0.9H8.8c-4.7,0-8.5,3.8-8.5,8.5v10.2c0,4.7,3.8,8.5,8.5,8.5H19c4.7,0,8.5-3.8,8.5-8.5V9.4
				C27.5,4.7,23.7,0.9,19,0.9z M24.9,19.6c0,3.3-2.7,6-6,6H8.8c-3.3,0-6-2.7-6-6V9.4c0-3.3,2.7-6,6-6H19c3.3,0,6,2.7,6,6V19.6z"/>
		</g>
	</g>
	<g>
		<g>
			<path class="st0" d="M13.9,7.7c-3.8,0-6.8,3-6.8,6.8s3,6.8,6.8,6.8s6.8-3,6.8-6.8S17.6,7.7,13.9,7.7z M13.9,18.7
				c-2.3,0-4.3-1.9-4.3-4.3s1.9-4.3,4.3-4.3s4.3,1.9,4.3,4.3S16.2,18.7,13.9,18.7z"/>
		</g>
	</g>
	<g>
		<g>
			<circle id="XMLID_2_" class="st0" cx="21.2" cy="7.2" r="0.9"/>
		</g>
	</g>
</g>
</svg>
