<svg width="33" height="31" viewBox="0 0 33 31" fill="none" xmlns="http://www.w3.org/2000/svg">
<path fill-rule="evenodd" clip-rule="evenodd" d="M32.4127 19.014V31H25.4614V19.8117C25.4614 16.9981 24.4586 15.0859 21.9447 15.0859C21.1612 15.091 20.3983 15.3378 19.7603 15.7926C19.1224 16.2474 18.6403 16.8881 18.3801 17.6272C18.1998 18.174 18.1191 18.7487 18.1419 19.324V30.9989H11.1997C11.1997 30.9989 11.2932 12.0547 11.1997 10.0935H18.1454V13.0564C18.1363 13.0803 18.1157 13.1008 18.1066 13.1282H18.1454V13.0564C18.7746 11.9628 19.6916 11.0626 20.7966 10.4537C21.9016 9.8447 23.1524 9.55026 24.413 9.60235C28.9883 9.60349 32.4127 12.5903 32.4127 19.014ZM3.92927 0.0128962C3.43316 -0.0290695 2.93373 0.0316442 2.46213 0.19125C1.99052 0.350856 1.55687 0.605931 1.18821 0.94056C0.819558 1.27519 0.523813 1.6822 0.319426 2.13619C0.115039 2.59018 0.00639595 3.08142 0.000273986 3.57926C-0.00584798 4.07711 0.0906825 4.57087 0.283844 5.02975C0.477005 5.48863 0.762653 5.90279 1.12297 6.24638C1.48328 6.58998 1.91053 6.85564 2.37807 7.02679C2.84561 7.19795 3.3434 7.27092 3.84038 7.24117H3.88141C4.3792 7.2829 4.88025 7.2213 5.35311 7.06023C5.82597 6.89915 6.26043 6.64208 6.62924 6.30515C6.99804 5.96822 7.29323 5.55869 7.49627 5.10228C7.69931 4.64587 7.80583 4.15241 7.80914 3.65288C7.81245 3.15335 7.71247 2.65853 7.51549 2.19947C7.31851 1.7404 7.02877 1.32701 6.66446 0.985222C6.30015 0.643435 5.86913 0.380635 5.39845 0.213313C4.92776 0.0459906 4.42757 -0.022242 3.92927 0.0128962V0.0128962ZM0.411428 31H7.36279V10.0924H0.411428V31Z" fill="#989898"/>
</svg>
