<svg width="39" height="31" viewBox="0 0 39 31" fill="none" xmlns="http://www.w3.org/2000/svg">
<path fill-rule="evenodd" clip-rule="evenodd" d="M37.4209 0.565834C35.9029 1.46466 34.2426 2.09787 32.5115 2.43821C31.452 1.30924 30.0776 0.52476 28.5667 0.186544C27.0558 -0.151673 25.4781 -0.028013 24.0384 0.54148C22.5986 1.11097 21.3632 2.10001 20.4925 3.38027C19.6218 4.66054 19.1559 6.17293 19.1554 7.72122C19.1552 8.31288 19.2224 8.90262 19.3558 9.47904C16.2866 9.32499 13.2841 8.5271 10.5433 7.13719C7.80245 5.74729 5.38462 3.79644 3.44679 1.41133C2.46136 3.11185 2.16062 5.12386 2.6057 7.0382C3.05079 8.95255 4.20829 10.6255 5.84283 11.7169C4.61689 11.6769 3.41819 11.3449 2.34628 10.7487V10.8455C2.34584 12.6279 2.96135 14.3558 4.0886 15.7365C5.21585 17.1172 6.78558 18.066 8.53207 18.4223C7.86928 18.6024 7.18559 18.6941 6.49877 18.695C6.01097 18.6958 5.52421 18.6501 5.04506 18.5586C5.53996 20.09 6.50028 21.4288 7.79219 22.3885C9.08409 23.3482 10.6432 23.881 12.2523 23.9126C9.51771 26.0581 6.14117 27.2219 2.66538 27.2168C2.04924 27.2166 1.43362 27.1807 0.821648 27.1091C4.3532 29.3785 8.46354 30.5829 12.6614 30.5784C26.8631 30.5784 34.628 18.8136 34.628 8.61036L34.6035 7.6094C36.1183 6.52088 37.4251 5.16884 38.4614 3.61782C37.0527 4.24222 35.5582 4.6518 34.028 4.83288C35.638 3.8679 36.8435 2.35185 37.4209 0.565834V0.565834Z" fill="#989898"/>
</svg>
