<svg width="45" height="31" viewBox="0 0 45 31" fill="none" xmlns="http://www.w3.org/2000/svg">
<path fill-rule="evenodd" clip-rule="evenodd" d="M42.4066 2.6241C40.8375 0.759296 37.9489 0 32.4125 0H12.332C6.67514 0 3.73009 0.808331 2.1684 2.79498C0.643867 4.72665 0.643867 7.58256 0.643867 11.5291V19.0508C0.643867 26.6957 2.45221 30.5784 12.332 30.5784H32.4065C37.203 30.5784 39.8598 29.9068 41.579 28.2619C43.3428 26.5754 44.0946 23.819 44.0946 19.0493V11.5276C44.1006 7.36562 43.9817 4.49783 42.4066 2.6241ZM28.5461 16.3256L19.4301 21.0894C19.2165 21.2011 18.9777 21.2558 18.7368 21.2483C18.4958 21.2407 18.2609 21.1711 18.0548 21.0462C17.8486 20.9213 17.6781 20.7453 17.5599 20.5353C17.4416 20.3252 17.3795 20.0882 17.3796 19.8472V10.3523C17.3792 10.1116 17.4409 9.87482 17.5588 9.66492C17.6766 9.45502 17.8466 9.27906 18.0523 9.15403C18.258 9.029 18.4924 8.95913 18.733 8.95117C18.9736 8.9432 19.2122 8.99742 19.4257 9.10858L28.5417 13.8412C28.7685 13.9596 28.9586 14.1378 29.0914 14.3566C29.2242 14.5753 29.2946 14.8262 29.2951 15.082C29.2956 15.3379 29.226 15.5891 29.094 15.8083C28.962 16.0274 28.7725 16.2064 28.5461 16.3256V16.3256Z" fill="#989898"/>
</svg>
