<?xml version="1.0" encoding="UTF-8"?><svg id="Layer_1" xmlns="http://www.w3.org/2000/svg" viewBox="0 0 1290 1277"><defs><style>.cls-1{fill:#666766;}.cls-1,.cls-2{fill-rule:evenodd;}.cls-2{fill:#da2727;}</style></defs><path class="cls-1" d="M1108.34,619.76l-46.86-96.6-47.12,96.6h-7.76l50.87-123.55-41.35-64.61h9.52l36.6,74.5,36.33-74.5h8.03l-40.36,82.8,51.38,105.36h-9.28Zm-114.27,0h-8.79l-35.57-71.76h-100.51l-35.08,71.76h-7.76l93.73-192.66,93.98,192.66Zm-141.61-79.05h94.24l-47.37-96.31-46.88,96.31Zm-90.72,79.05v-180.87h-43.35v-7.29h94.49v7.29h-42.86v180.87h-8.27Zm474.25,151.95c0,17.76-14.46,32.21-32.19,32.21H487.69l3.93-10.69h712.17c11.86,0,21.5-9.67,21.5-21.52V252.48c0-11.86-9.65-21.52-21.5-21.52h-505.74l4.48-10.69h501.26c17.76,0,32.19,14.46,32.19,32.21V771.72ZM454.51,230.93l-.02,346.83-10.67,27.75V230.95H166.03c-11.86,0-21.5,9.67-21.5,21.52V771.72c0,11.86,9.65,21.52,21.5,21.52h207.96l-3.97,10.69H166.03c-17.73,0-32.19-14.46-32.19-32.21V252.48c0-17.76,14.46-32.21,32.19-32.21h421.13l-3.99,10.67h-128.65Zm-120.78,231.35c-1.9,19.5-10.98,37.58-25.54,50.89-14.64,13.39-33.61,20.77-53.37,20.77h-41.84l119.99,113.53c.68,.61,1.06,1.54,1.09,2.48,.04,.96-.31,1.88-.92,2.54-.68,.72-1.54,1.09-2.56,1.09-.92,0-1.78-.33-2.4-.92l-126.37-119.56c-1-.94-1.33-2.48-.82-3.83,.53-1.33,1.86-2.25,3.24-2.25h50.6c36.51,0,67.4-27.38,71.84-63.65l.66-5.51h-123.02c-1.88,0-3.46-1.58-3.46-3.46s1.58-3.46,3.46-3.46h123.06l-.72-5.51c-4.59-35.8-35.45-62.81-71.82-62.81h-50.6c-1.88,0-3.46-1.58-3.46-3.46s1.58-3.46,3.46-3.46h176.79c1.88,0,3.46,1.58,3.46,3.46s-1.58,3.46-3.46,3.46h-94.35c2.27,1.04,5.04,2.38,6.33,3.07,2.09,1.17,7.54,4.69,9.15,5.73,17.57,12.74,29.33,33.3,31.58,55.13l.45,4.38h46.83c1.88,0,3.46,1.58,3.46,3.46s-1.58,3.46-3.46,3.46h-46.86l-.43,4.42Z"/><path class="cls-2" d="M675.38,977.79c30.66,0,58.32,19.33,68.87,48.08,6.76,18.41,5.94,38.32-2.27,56.09-8.23,17.78-22.87,31.29-41.24,38.05-8.13,2.99-16.61,4.51-25.19,4.51-30.64,0-58.32-19.31-68.87-48.08-13.93-37.97,5.59-80.19,43.54-94.14,8.11-2.99,16.59-4.51,25.17-4.51Zm-58.69,94.98c9.01,24.55,32.66,41.06,58.84,41.06,7.33,0,14.58-1.29,21.52-3.83,15.69-5.8,28.22-17.33,35.24-32.54,7.02-15.17,7.7-32.19,1.95-47.9-9.01-24.57-32.64-41.08-58.82-41.08-7.35,0-14.58,1.29-21.52,3.85-32.42,11.92-49.11,47.98-37.21,80.44Zm198.42,40.47c-16.9,38.03-47.65,66.92-86.63,81.34-16.83,6.25-34.38,9.42-52.16,9.42-21.99,0-43.48-4.79-63.85-14.21-37.99-17.53-66.84-48.84-81.26-88.16l-78.31-213.31-78.31,213.31c-14.42,39.32-43.27,70.63-81.24,88.16-20.38,9.42-41.86,14.21-63.85,14.21-17.78,0-35.33-3.17-52.16-9.42-38.97-14.42-69.75-43.31-86.63-81.34-16.87-38.03-17.63-80.28-2.17-118.96,22.94-57.44,80.03-96.05,142.04-96.05,15.95,0,31.78,2.52,47.04,7.5,10.94,3.54,21.46,8.36,31.25,14.23l11.61,6.96,44.5-119.64,3.97-10.69,69.83-187.73,10.67-27.75,20.5-56.01,108.17-290.82,3.99-10.67,44.38-119.31c.98-2.64,4.08-4.12,6.78-3.17,25.58,9.01,46.04,27.5,57.59,52.06,8.5,18.06,11.47,37.95,8.56,57.48l-1.93,12.94-214.84,583.67-24.06,65.53,82.65,225.12c13.43,36.64,40.32,65.82,75.69,82.14,18.96,8.76,38.95,13.21,59.41,13.21,16.53,0,32.83-2.93,48.43-8.72,36.27-13.41,64.88-40.3,80.56-75.67,15.71-35.37,16.42-74.67,2.03-110.67-21.34-53.41-74.42-89.31-132.09-89.31-14.85,0-29.57,2.33-43.76,6.96-16.44,5.37-31.62,13.58-45.09,24.43-1.33,1.06-3.15,1.43-4.79,.96-1.64-.45-2.97-1.68-3.56-3.28l-48.62-130.72-16.24-41.49,72.13,161.15,11.61-6.98c9.81-5.88,20.31-10.69,31.25-14.23,15.26-4.98,31.07-7.5,47.02-7.5,62.03,0,119.13,38.6,142.06,96.05,15.46,38.68,14.68,80.93-2.17,118.96ZM684.27,227.1c8.36-22.77,7.27-47.39-3.05-69.36-7.58-16.1-19.56-29.43-34.61-38.54l-11.63-7.04L327.75,937.98c-.59,1.62-1.93,2.85-3.58,3.3-1.62,.45-3.44,.1-4.77-.96-13.48-10.85-28.63-19.07-45.09-24.43-14.17-4.63-28.92-6.96-43.76-6.96-57.67,0-110.75,35.9-132.09,89.31-14.4,36-13.66,75.3,2.03,110.67,15.69,35.37,44.32,62.26,80.56,75.67,15.63,5.8,31.91,8.72,48.43,8.72,20.48,0,40.47-4.44,59.41-13.21,35.37-16.32,62.26-45.48,75.69-82.14L684.27,227.1ZM230.27,1124.52c-8.58,0-17.06-1.52-25.17-4.51-18.39-6.74-33.03-20.25-41.24-38.05-8.23-17.78-9.05-37.7-2.29-56.09,10.55-28.75,38.21-48.08,68.87-48.08,8.58,0,17.04,1.52,25.17,4.51,18.39,6.74,33.03,20.27,41.24,38.05,8.23,17.78,9.05,37.7,2.29,56.09-10.55,28.77-38.21,48.08-68.87,48.08Zm56.89-99.69c-7.02-15.2-19.54-26.72-35.24-32.5-6.98-2.56-14.23-3.87-21.58-3.87-9.09,0-17.94,1.97-26.27,5.84-15.2,7.02-26.72,19.54-32.48,35.26-5.75,15.71-5.06,32.73,1.95,47.9,7.02,15.22,19.54,26.75,35.24,32.52,6.94,2.56,14.17,3.85,21.52,3.85,26.17,0,49.82-16.51,58.84-41.06,5.75-15.71,5.06-32.75-1.97-47.94Zm-16.32-912.68l-11.63,7.04c-15.05,9.11-27.01,22.44-34.61,38.54-8.44,17.98-10.75,37.68-6.64,56.95l1.9,8.93h-11.55l-1.93-12.92c-2.91-19.58,.06-39.44,8.56-57.52,11.57-24.55,32.01-43.03,57.61-52.04,2.66-.94,5.8,.53,6.78,3.17l44.36,119.31h-11.39l-41.47-111.47Z"/></svg>