<?xml version="1.0" encoding="UTF-8"?><svg id="Layer_1" xmlns="http://www.w3.org/2000/svg" viewBox="0 0 1290 1277"><defs><style>.cls-1{fill:#666766;}.cls-1,.cls-2{fill-rule:evenodd;}.cls-2{fill:#da2727;}</style></defs><path class="cls-2" d="M335.63,377.11l427.27,243.01v317.77c0,2.01,1.08,3.87,2.8,4.81,.85,.46,1.78,.72,2.71,.72,1.04,0,2.05-.31,2.94-.85l139.05-87.61c1.62-1.02,2.59-2.76,2.59-4.68v-318.28l-.95-.97v-4.79l-.43-.56s-.77-.72-.79-.73c-.27-.21-.54-.39-.85-.58l-424.7-241.52-16.51-10.55,1.68,7.11-.91,.31s-64.56,40.67-142.76,89.93l8.85,7.46Zm561.1,152.42l-63.28,39.91c-1.6,.99-2.2,2.4-2.44,3.42-.23,1.02-.29,2.55,.72,4.17,1.49,2.38,3.96,2.55,4.68,2.55,1.04,0,2.01-.27,2.92-.85l62.62-39.45v307.95l-128.03,80.68v-311.01c0-1.97-1.06-3.81-2.78-4.79l-424.93-241.66,128.47-80.95,422.05,240.02Z"/><path class="cls-1" d="M1186.96,356.11l-197.92,124.69c-.91,.56-1.89,.85-2.92,.85-.72,0-3.19-.19-4.7-2.57-1.6-2.57-.83-5.99,1.74-7.62l190.13-119.78L751.23,111.67l-267.52,168.54-12.74-5.01L748.15,100.58c.87-.56,1.89-.85,2.94-.85,.95,0,1.87,.25,2.69,.72l432.97,246.22c1.66,.95,2.73,2.74,2.76,4.66,.06,1.93-.93,3.77-2.55,4.79ZM488.6,783.07l195.12-122.93c.89-.58,1.87-.85,2.9-.85,.72,0,3.19,.19,4.68,2.57,1.02,1.6,.95,3.17,.72,4.17-.23,1.01-.83,2.44-2.42,3.44l-197.92,124.69c-.89,.56-1.89,.85-2.94,.85-.95,0-1.87-.23-2.69-.7L53.09,548.08c-1.7-.95-2.76-2.74-2.8-4.66-.04-1.93,.95-3.77,2.57-4.79,0,0,154.57-97.39,275.06-173.32l6.15,9.16L66.53,543.06l422.07,240.02ZM55.84,624.35c.93,0,1.84,.23,2.69,.72l430.05,244.58,195.14-122.93c.89-.56,1.87-.85,2.9-.85,.72,0,3.17,.19,4.68,2.59,1.02,1.6,.95,3.15,.72,4.16-.23,1.02-.83,2.44-2.42,3.44l-197.94,124.69c-.87,.58-1.89,.87-2.92,.87-.95,0-1.89-.27-2.73-.73L53.08,634.65c-1.64-.93-2.32-2.32-2.59-3.32s-.41-2.53,.52-4.17c1.49-2.59,4.06-2.8,4.83-2.8Zm0,85.76c.93,0,1.84,.25,2.69,.72l430.05,244.6,195.14-122.95c.89-.56,1.87-.83,2.9-.83,.72,0,3.19,.17,4.68,2.57,1.02,1.6,.95,3.15,.72,4.17-.23,1.01-.83,2.42-2.42,3.42l-197.94,124.71c-.87,.54-1.89,.83-2.92,.83-.95,0-1.89-.25-2.73-.72L53.08,720.41c-1.64-.93-2.32-2.32-2.59-3.32-.27-1.01-.41-2.53,.52-4.17,1.49-2.59,4.06-2.8,4.83-2.8Zm0,75.63c.93,0,1.84,.25,2.69,.72l430.05,244.6,195.14-122.95c.89-.56,1.87-.85,2.9-.85,.72,0,3.17,.19,4.68,2.57,1.02,1.6,.95,3.17,.72,4.17-.23,1.02-.83,2.44-2.42,3.44l-197.94,124.69c-.87,.58-1.89,.85-2.92,.85-.95,0-1.89-.23-2.73-.72L53.08,796.04c-1.64-.93-2.32-2.32-2.59-3.32-.27-.99-.41-2.53,.52-4.17,1.49-2.59,4.06-2.8,4.83-2.8Zm0,73.02c.93,0,1.84,.25,2.69,.72l430.05,244.58,195.14-122.93c.89-.56,1.87-.85,2.9-.85,.72,0,3.19,.17,4.68,2.57,1.02,1.6,.95,3.15,.72,4.17-.23,1.02-.83,2.44-2.42,3.44l-197.94,124.69c-.87,.58-1.89,.85-2.92,.85-.95,0-1.89-.23-2.73-.72L53.08,869.06c-1.64-.93-2.32-2.32-2.59-3.31-.27-1.01-.41-2.55,.52-4.19,1.49-2.59,4.06-2.8,4.83-2.8Zm933.2-295.62c-.89,.56-1.86,.83-2.9,.83-.72,0-3.19-.19-4.72-2.57-1.6-2.55-.83-5.97,1.74-7.6l197.92-124.69c.91-.56,1.87-.85,2.92-.85,.72,0,3.17,.19,4.66,2.57,1.02,1.6,.97,3.15,.73,4.16-.23,1.02-.85,2.45-2.45,3.46l-197.9,124.69Zm192.04-52.51c.91-.56,1.87-.85,2.92-.85,.72,0,3.17,.19,4.66,2.57,1.02,1.62,.97,3.15,.73,4.17-.23,1.01-.85,2.44-2.45,3.44l-197.9,124.69c-.89,.56-1.86,.83-2.9,.83-.93,0-3.25-.25-4.72-2.57-1.6-2.55-.83-5.97,1.74-7.6l197.92-124.69Zm-192.04,218.14c-.89,.58-1.86,.85-2.9,.85-.72,0-3.19-.17-4.72-2.59-1.6-2.55-.83-5.97,1.74-7.6l197.92-124.67c.91-.56,1.87-.85,2.92-.85,.72,0,3.17,.17,4.66,2.55,1.02,1.62,.97,3.17,.73,4.17-.23,1.02-.85,2.45-2.45,3.46l-197.9,124.67Zm192.04-60.98c.91-.58,1.87-.87,2.92-.87,.72,0,3.17,.19,4.66,2.59,1.02,1.6,.97,3.15,.73,4.16-.23,1.02-.85,2.44-2.45,3.46l-197.9,124.67c-.89,.58-1.86,.85-2.9,.85-.93,0-3.25-.25-4.72-2.59-1.6-2.55-.83-5.97,1.74-7.58l197.92-124.69Z"/></svg>